<svg xmlns="http://www.w3.org/2000/svg" width="474" height="249" fill="none"><path stroke="#CCCFCE" stroke-dasharray="6 6" stroke-linecap="round" stroke-linejoin="round" d="M229 124.246h-43.74c-11.046 0-20-8.954-20-20v-60c0-11.046-8.954-20-20-20H96"/><path stroke="#000" stroke-dasharray="6 6" stroke-linecap="round" stroke-linejoin="round" stroke-opacity=".2" d="M229 124.246h-43.74c-11.046 0-20-8.954-20-20v-60c0-11.046-8.954-20-20-20H96"/><rect width="47" height="47" x="48.5" y=".746" fill="#fff" rx="23.5"/><rect width="47" height="47" x="48.5" y=".746" stroke="#fff" rx="23.5"/><g clip-path="url(#a)"><path fill="#139D49" fill-rule="evenodd" d="M72.377 12.246a.48.48 0 0 1 .48.48v4.641c0 .528.728.67.925.18l1.739-4.303a.48.48 0 0 1 .625-.265l.699.282a.48.48 0 0 1 .265.625l-1.853 4.588c-.196.484.414.888.784.519l3.499-3.499a.48.48 0 0 1 .679 0l.533.534a.48.48 0 0 1 0 .678l-3.142 3.142c-.375.375.046.992.532.78l4.071-1.78a.48.48 0 0 1 .632.248l.302.691a.48.48 0 0 1-.247.632l-4.692 2.05c-.477.208-.328.92.192.92h5.12a.48.48 0 0 1 .48.48v.754a.48.48 0 0 1-.48.48H78.4c-.52 0-.668.712-.192.92l4.692 2.05a.48.48 0 0 1 .247.632l-.302.691a.48.48 0 0 1-.632.248l-4.071-1.78c-.486-.212-.907.405-.532.78l3.142 3.142a.48.48 0 0 1 0 .679l-.533.533a.48.48 0 0 1-.68 0L76.042 29.5c-.37-.37-.98.034-.784.519l1.853 4.587a.48.48 0 0 1-.265.625l-.7.283a.48.48 0 0 1-.624-.266l-1.739-4.303c-.197-.489-.925-.347-.925.18v4.641a.48.48 0 0 1-.48.48h-.754a.48.48 0 0 1-.48-.48v-4.64c0-.528-.728-.67-.925-.18l-1.739 4.302a.48.48 0 0 1-.625.266l-.699-.283a.48.48 0 0 1-.265-.625l1.853-4.587c.196-.485-.414-.89-.784-.52L64.46 33a.48.48 0 0 1-.679 0l-.533-.534a.48.48 0 0 1 0-.68l3.142-3.14c.375-.376-.046-.992-.532-.78l-4.071 1.779a.48.48 0 0 1-.632-.248l-.302-.691a.48.48 0 0 1 .247-.632l4.692-2.05c.477-.208.328-.92-.192-.92h-5.12a.48.48 0 0 1-.48-.48v-.754a.48.48 0 0 1 .48-.48h5.12c.52 0 .669-.712.192-.92L61.1 20.42a.48.48 0 0 1-.247-.632l.302-.69a.48.48 0 0 1 .632-.249l4.071 1.78c.486.212.907-.405.532-.78l-3.142-3.142a.48.48 0 0 1 0-.678l.533-.534a.48.48 0 0 1 .68 0l3.498 3.499c.37.37.98-.035.784-.52l-1.853-4.587a.48.48 0 0 1 .265-.625l.7-.282a.48.48 0 0 1 .624.265l1.739 4.303c.197.49.925.348.925-.18v-4.64a.48.48 0 0 1 .48-.48h.754ZM72 29.39a5.143 5.143 0 1 0 0-10.286 5.143 5.143 0 0 0 0 10.286Z" clip-rule="evenodd"/></g><path stroke="#CCCFCE" stroke-dasharray="6 6" stroke-linecap="round" stroke-linejoin="round" d="M218 124.246H48"/><path stroke="#000" stroke-dasharray="6 6" stroke-linecap="round" stroke-linejoin="round" stroke-opacity=".2" d="M218 124.246H48"/><rect width="48" height="48" y="100.246" fill="#fff" rx="24"/><path fill="#FF6D41" d="M25.595 124.246a1.642 1.642 0 1 1-3.284 0 1.642 1.642 0 0 1 3.284 0Zm4.485 2.59a1.643 1.643 0 1 1-3.286-.001 1.643 1.643 0 0 1 3.285.001Zm4.483 2.589a1.642 1.642 0 1 1-3.283 0 1.642 1.642 0 0 1 3.283 0Zm-13.389-7.768a1.642 1.642 0 1 1-3.284 0 1.642 1.642 0 0 1 3.284 0Zm-4.421-2.59a1.642 1.642 0 1 1-3.284 0 1.642 1.642 0 0 1 3.284 0Zm4.421 7.769a1.643 1.643 0 1 1-3.285-.001 1.643 1.643 0 0 1 3.285.001Zm-4.421 2.589a1.642 1.642 0 1 1-3.284 0 1.642 1.642 0 0 1 3.284 0Zm13.327-7.768a1.642 1.642 0 1 1-3.285 0 1.642 1.642 0 0 1 3.284 0Zm4.483-2.59a1.642 1.642 0 1 1-3.283 0 1.642 1.642 0 0 1 3.283 0Zm-8.968 10.358a1.642 1.642 0 1 1-3.284 0 1.642 1.642 0 0 1 3.284 0Zm0 5.179a1.642 1.642 0 1 1-3.284 0 1.642 1.642 0 0 1 3.284 0Zm0-15.537a1.642 1.642 0 1 1-3.284 0 1.642 1.642 0 0 1 3.284 0Zm0-5.179a1.642 1.642 0 1 1-3.284 0 1.642 1.642 0 0 1 3.284 0Z"/><path stroke="#CCCFCE" stroke-dasharray="6 6" stroke-linecap="round" stroke-linejoin="round" d="M229 124.246h-33.74c-16.568 0-30 13.432-30 30v40c0 16.569-13.431 30-30 30H96"/><path stroke="#000" stroke-dasharray="6 6" stroke-linecap="round" stroke-linejoin="round" stroke-opacity=".2" d="M229 124.246h-33.74c-16.568 0-30 13.432-30 30v40c0 16.569-13.431 30-30 30H96"/><rect width="47" height="47" x="48.5" y="200.746" fill="#fff" rx="23.5"/><rect width="47" height="47" x="48.5" y="200.746" stroke="#fff" rx="23.5"/><g fill="#000" clip-path="url(#b)"><path d="M71.5 217.088a2.421 2.421 0 1 0 0-4.842 2.421 2.421 0 0 0 0 4.842Zm0 9.086a2.421 2.421 0 1 0 0-4.842 2.421 2.421 0 0 0 0 4.842Zm-9.079 0a2.421 2.421 0 1 0 0-4.842 2.421 2.421 0 0 0 0 4.842Zm18.766 0a2.421 2.421 0 1 0 0-4.842 2.421 2.421 0 0 0 0 4.842Zm-3.33-7.784a1.514 1.514 0 1 0-.001-3.027 1.514 1.514 0 0 0 0 3.027Zm0 13.218a1.513 1.513 0 1 0 0-3.026 1.513 1.513 0 0 0 0 3.026Zm-12.711 0a1.513 1.513 0 1 0 0-3.026 1.513 1.513 0 0 0 0 3.026Zm0-13.218a1.514 1.514 0 1 0-.001-3.027 1.514 1.514 0 0 0 .001 3.027Zm6.354 16.862a2.421 2.421 0 1 0 0-4.842 2.421 2.421 0 0 0 0 4.842Z"/></g><path stroke="#CCCFCE" stroke-dasharray="6 6" stroke-linecap="round" stroke-linejoin="round" d="M256 124.246h170"/><path stroke="#000" stroke-dasharray="6 6" stroke-linecap="round" stroke-linejoin="round" stroke-opacity=".2" d="M256 124.246h170"/><rect width="48" height="48" x="426" y="100.246" fill="#635BFF" rx="24"/><path fill="#fff" stroke="#fff" d="M461.5 130.555v4.882l-11-5.5v-4.882l11 5.5Zm-11-7.118v-4.882l11-5.5v4.882l-11 5.5Zm-12 1.618 11 5.5v4.882l-11-5.5v-4.882Zm11-7.118-11 5.5v-4.882l11-5.5v4.882Z"/><path stroke="#CCCFCE" stroke-dasharray="6 6" stroke-linecap="round" stroke-linejoin="round" d="M245 124.246h43.74c11.046 0 20-8.954 20-20v-60c0-11.046 8.954-20 20-20H378"/><path stroke="#000" stroke-dasharray="6 6" stroke-linecap="round" stroke-linejoin="round" stroke-opacity=".2" d="M245 124.246h43.74c11.046 0 20-8.954 20-20v-60c0-11.046 8.954-20 20-20H378"/><rect width="48" height="48" x="378" y=".246" fill="#95BF46" rx="24"/><path fill="#fff" stroke="#fff" d="m404.495 12.746-2.271 9.642a1.874 1.874 0 0 0-.448 0l-2.271-9.642h4.99Zm-1.023 10.345a1.854 1.854 0 0 0-.317-.317l5.212-8.424 3.529 3.529-8.424 5.212Zm4.877-8.759Zm-4.478 9.914c0-.076-.004-.15-.013-.224l9.642-2.271v4.99l-9.642-2.27c.009-.074.013-.149.013-.225Zm9.654 2.501Zm-10.37-1.029c.118-.092.225-.199.317-.317l8.424 5.212-3.529 3.53-5.212-8.425Zm-1.155.4c.076 0 .151-.005.224-.014l2.271 9.642h-4.99l2.271-9.642c.073.01.148.014.224.014Zm-1.472-.717c.092.118.199.225.317.317l-5.212 8.424-3.529-3.529 8.424-5.212Zm-8.442 5.194Zm8.043-6.349c0 .076.004.15.013.224l-9.642 2.271v-4.99l9.642 2.27a1.844 1.844 0 0 0-.013.225Zm.716-1.472a1.829 1.829 0 0 0-.317.317l-8.424-5.212 3.529-3.53 5.212 8.425Zm-5.194-8.442Zm-.031-.004Zm8.881-1.607Z"/><path stroke="#CCCFCE" stroke-dasharray="6 6" stroke-linecap="round" stroke-linejoin="round" d="M245 124.246h33.74c16.568 0 30 13.432 30 30v40c0 16.569 13.431 30 30 30H378"/><path stroke="#000" stroke-dasharray="6 6" stroke-linecap="round" stroke-linejoin="round" stroke-opacity=".2" d="M245 124.246h33.74c16.568 0 30 13.432 30 30v40c0 16.569 13.431 30 30 30H378"/><rect width="47" height="47" x="378.5" y="200.746" fill="#fff" rx="23.5"/><rect width="47" height="47" x="378.5" y="200.746" stroke="#fff" rx="23.5"/><g clip-path="url(#c)"><path fill="#F8BD00" d="M410.747 229.002a1.75 1.75 0 0 1-2.475 0l-3.017-3.017a1.75 1.75 0 0 1 0-2.475l3.017-3.017a1.75 1.75 0 0 1 2.475 0l3.017 3.017a1.75 1.75 0 0 1 0 2.475l-3.017 3.017Zm-14.016 0a1.75 1.75 0 0 1-2.475 0l-3.017-3.017a1.75 1.75 0 0 1 0-2.475l3.017-3.017a1.75 1.75 0 0 1 2.475 0l3.017 3.017a1.75 1.75 0 0 1 0 2.475l-3.017 3.017Zm7.008 7.008a1.75 1.75 0 0 1-2.475 0l-3.017-3.017a1.75 1.75 0 0 1 0-2.475l3.017-3.017a1.75 1.75 0 0 1 2.475 0l3.017 3.017a1.75 1.75 0 0 1 0 2.475l-3.017 3.017Zm0-14.016a1.75 1.75 0 0 1-2.475 0l-3.017-3.017a1.75 1.75 0 0 1 0-2.475l3.017-3.017a1.75 1.75 0 0 1 2.475 0l3.017 3.017a1.75 1.75 0 0 1 0 2.475l-3.017 3.017Z"/></g><rect width="80" height="80" x="197" y="84.246" fill="#fff" rx="40"/><path fill="#139D49" d="M228.146 105.246h21.961l-16.146 25.676H212l16.146-25.676Z"/><path fill="#0A3D2A" d="m229.105 133.301-6.253 9.945h23.002L262 117.57h-16.977l-9.893 15.731h-6.025Z"/><defs><clipPath id="a"><path fill="#fff" d="M60 12.246h24v24H60z"/></clipPath><clipPath id="b"><path fill="#fff" d="M60 212.246h24v24H60z"/></clipPath><clipPath id="c"><path fill="#fff" d="M390 212.246h25v25h-25z"/></clipPath></defs></svg>