<svg xmlns="http://www.w3.org/2000/svg" width="504" height="339" fill="none"><g clip-path="url(#a)"><path fill="#fff" d="M0 16.246c0-8.836 7.163-16 16-16h472c8.837 0 16 7.164 16 16v322H0v-322Z"/><path fill="#6B756F" d="m24.08 31.542-3.92-6.864h1.76l2.576 4.624c.16.272.256.496.384.768.144-.288.176-.384.384-.768l2.56-4.624h1.712l-3.888 6.864v4.704H24.08v-4.704Zm4.321.784c0-2.416 1.728-4.112 4.08-4.112 2.336 0 4.064 1.696 4.064 4.112 0 2.416-1.728 4.112-4.064 4.112-2.352 0-4.08-1.696-4.08-4.112Zm1.52 0c0 1.632 1.04 2.768 2.56 2.768 1.504 0 2.56-1.136 2.56-2.768s-1.056-2.768-2.56-2.768c-1.52 0-2.56 1.136-2.56 2.768Zm13.21-3.904h1.487v7.824h-1.344l-.16-1.184c-.448.816-1.488 1.376-2.64 1.376-1.824 0-2.848-1.232-2.848-3.152v-4.864h1.504v4.368c0 1.68.72 2.32 1.872 2.32 1.376 0 2.128-.88 2.128-2.56v-4.128Zm7.85-.064v1.376h-.672c-1.424 0-2.304.864-2.304 2.368v4.144H46.5v-7.808h1.408l.096 1.184c.32-.816 1.105-1.36 2.177-1.36.272 0 .495.032.8.096Zm4.545 5.616h1.44c0 .8.608 1.28 1.6 1.28 1.056 0 1.664-.432 1.664-1.152 0-.528-.256-.848-1.072-1.056l-1.376-.32c-1.392-.336-2.048-1.024-2.048-2.176 0-1.44 1.216-2.352 2.944-2.352 1.712 0 2.832.96 2.864 2.448h-1.44c-.032-.784-.56-1.28-1.472-1.28-.944 0-1.472.416-1.472 1.136 0 .528.384.88 1.152 1.072l1.376.336c1.328.32 1.984.928 1.984 2.096 0 1.488-1.28 2.432-3.136 2.432-1.84 0-3.008-.976-3.008-2.464Zm7.512 5.776V28.422h1.36l.112 1.408c.528-1.072 1.584-1.632 2.832-1.632 2.24 0 3.632 1.68 3.632 4.08 0 2.384-1.312 4.176-3.632 4.176-1.248 0-2.288-.528-2.8-1.488v4.784h-1.504Zm1.52-7.408c0 1.6.928 2.752 2.464 2.752s2.448-1.152 2.448-2.752c0-1.616-.912-2.768-2.448-2.768s-2.464 1.136-2.464 2.768Zm11.15 4.096c-2.304 0-3.888-1.664-3.888-4.096 0-2.448 1.552-4.144 3.824-4.144 2.224 0 3.68 1.536 3.68 3.856v.56l-6.048.016c.112 1.648.976 2.56 2.464 2.56 1.168 0 1.936-.48 2.192-1.376h1.408c-.384 1.68-1.696 2.624-3.632 2.624Zm-.064-6.976c-1.312 0-2.144.784-2.336 2.16h4.512c0-1.296-.848-2.16-2.176-2.16Zm6.564 6.784h-1.504v-7.824h1.36l.16 1.2c.496-.896 1.488-1.424 2.592-1.424 2.064 0 3.008 1.264 3.008 3.264v4.784H86.32v-4.448c0-1.584-.736-2.224-1.888-2.224-1.408 0-2.224 1.008-2.224 2.528v4.144Zm10.535.192c-2.272 0-3.648-1.696-3.648-4.08 0-2.4 1.392-4.16 3.712-4.16 1.2 0 2.208.528 2.736 1.488V24.47h1.488v11.776h-1.344l-.128-1.424c-.512 1.072-1.568 1.616-2.816 1.616Zm.304-1.36c1.536 0 2.48-1.136 2.48-2.768 0-1.6-.944-2.752-2.48-2.752s-2.432 1.152-2.432 2.752c0 1.616.896 2.768 2.432 2.768Zm6.59-8.512a.997.997 0 0 1-.993-.992c0-.56.448-.992.992-.992.545 0 .993.432.993.992a.997.997 0 0 1-.993.992Zm-.737 9.68v-7.824h1.505v7.824H98.9Zm4.892 0h-1.504v-7.824h1.36l.16 1.2c.496-.896 1.488-1.424 2.592-1.424 2.064 0 3.008 1.264 3.008 3.264v4.784h-1.504v-4.448c0-1.584-.736-2.224-1.888-2.224-1.408 0-2.224 1.008-2.224 2.528v4.144Zm6.903-4.112c0-2.208 1.424-3.936 3.696-3.936 1.264 0 2.24.576 2.736 1.552l.112-1.328h1.344v7.504c0 2.464-1.52 4.032-3.92 4.032-2.128 0-3.584-1.2-3.872-3.184h1.504c.192 1.152 1.056 1.824 2.368 1.824 1.472 0 2.432-.96 2.432-2.448v-1.568c-.512.912-1.536 1.456-2.768 1.456-2.224 0-3.632-1.712-3.632-3.904Zm1.504-.032c0 1.472.912 2.624 2.384 2.624 1.52 0 2.448-1.088 2.448-2.624 0-1.504-.896-2.592-2.432-2.592-1.504 0-2.4 1.152-2.4 2.592Z"/><path fill="#0A3D2A" d="M26.24 75.526v-1.992c-3.336-.24-5.472-2.184-5.544-5.112h3.072c.024 1.368.912 2.232 2.472 2.424v-5.112l-.768-.168c-3.024-.648-4.536-2.328-4.536-4.968 0-2.808 2.112-4.824 5.304-5.16v-2.04h1.848v2.04c3.024.312 4.896 2.208 4.992 5.088h-2.976c-.048-1.296-.768-2.136-2.016-2.4v5.16l.816.192c3.072.672 4.464 2.16 4.464 4.704 0 2.928-2.064 4.944-5.28 5.304v2.04H26.24Zm-.096-12.672.096.024v-4.776c-1.44.24-2.304 1.104-2.304 2.4 0 1.272.672 2.016 2.208 2.352Zm2.112 3.312-.168-.048v4.68c1.44-.288 2.304-1.128 2.304-2.352s-.696-1.968-2.136-2.28Zm18.72 7.056-12.169.024v-2.304l5.736-4.848c2.376-2.016 3.168-3.168 3.168-4.848 0-1.992-1.08-3.12-2.928-3.12-1.92 0-3.12 1.344-3.144 3.6h-3.048c.024-3.84 2.472-6.336 6.192-6.336 3.744 0 6.072 2.136 6.072 5.688 0 2.448-1.344 4.296-4.008 6.576l-3.168 2.712h7.296v2.856Zm14.718-3.312h-2.136v3.336h-2.904V69.91H47.75v-2.688l7.944-11.52h3.864v11.52h2.136v2.688Zm-10.68-2.688h5.64v-8.208l-5.64 8.208Zm16.129 4.968c0 1.992-1.44 3.576-3.384 3.816V74.83c1.08-.192 1.896-.84 1.896-1.68a1.497 1.497 0 0 1-.696.144c-.936 0-1.704-.696-1.704-1.656 0-1.152.744-1.92 1.824-1.92 1.2 0 2.064.984 2.064 2.472Zm1.225-7.68c0-5.448 2.928-9.144 7.416-9.144s7.44 3.696 7.44 9.144c0 5.424-2.784 9.048-7.44 9.048-4.656 0-7.416-3.624-7.416-9.048Zm3.024 0c0 4.056 1.632 6.336 4.392 6.336 2.784 0 4.416-2.28 4.416-6.336 0-4.152-1.632-6.432-4.416-6.432-2.76 0-4.392 2.28-4.392 6.432Zm13.398 0c0-5.448 2.928-9.144 7.416-9.144s7.44 3.696 7.44 9.144c0 5.424-2.784 9.048-7.44 9.048-4.656 0-7.416-3.624-7.416-9.048Zm3.024 0c0 4.056 1.632 6.336 4.392 6.336 2.784 0 4.416-2.28 4.416-6.336 0-4.152-1.632-6.432-4.416-6.432-2.76 0-4.392 2.28-4.392 6.432Zm13.398 0c0-5.448 2.928-9.144 7.416-9.144s7.44 3.696 7.44 9.144c0 5.424-2.784 9.048-7.44 9.048-4.656 0-7.416-3.624-7.416-9.048Zm3.024 0c0 4.056 1.632 6.336 4.392 6.336 2.784 0 4.416-2.28 4.416-6.336 0-4.152-1.632-6.432-4.416-6.432-2.76 0-4.392 2.28-4.392 6.432Z"/><rect width="82" height="28" x="402" y="50.246" fill="#F8F9FA" rx="14"/><path fill="#414D48" d="m415.22 69.246-3.01-10.122h1.428l1.848 6.188c.14.532.28 1.064.42 1.834.168-.812.322-1.302.476-1.834l1.918-6.188h1.484l1.904 6.188c.168.546.308 1.078.462 1.834.168-.854.308-1.372.448-1.82l1.862-6.202h1.4l-3.052 10.122h-1.316l-2.45-8.008-2.478 8.008h-1.344Zm13.866.168c-2.016 0-3.402-1.456-3.402-3.584 0-2.142 1.358-3.626 3.346-3.626 1.946 0 3.22 1.344 3.22 3.374v.49l-5.292.014c.098 1.442.854 2.24 2.156 2.24 1.022 0 1.694-.42 1.918-1.204h1.232c-.336 1.47-1.484 2.296-3.178 2.296Zm-.056-6.104c-1.148 0-1.876.686-2.044 1.89h3.948c0-1.134-.742-1.89-1.904-1.89Zm7.644 6.104c-2.016 0-3.402-1.456-3.402-3.584 0-2.142 1.358-3.626 3.346-3.626 1.946 0 3.22 1.344 3.22 3.374v.49l-5.292.014c.098 1.442.854 2.24 2.156 2.24 1.022 0 1.694-.42 1.918-1.204h1.232c-.336 1.47-1.484 2.296-3.178 2.296Zm-.056-6.104c-1.148 0-1.876.686-2.044 1.89h3.948c0-1.134-.742-1.89-1.904-1.89Zm6.033 5.936h-1.316V58.942h1.316v6.678l3.038-3.22h1.652l-2.618 2.73 2.604 4.116h-1.512l-2.002-3.164-1.162 1.218v1.946Zm7.11 0h-1.316V58.942h1.316v10.304Zm1.279 3.066v-1.078h.882c.63 0 1.134-.098 1.456-.966l.238-.658-2.758-7.21h1.386l1.988 5.516 2.03-5.516h1.358l-3.234 8.386c-.462 1.176-1.148 1.666-2.198 1.666-.434 0-.798-.056-1.148-.14Z"/><path stroke="#414D48" stroke-linecap="round" stroke-linejoin="round" stroke-width="1.2" d="m465.5 63.496 2.793 2.793c.333.333.5.5.707.5.207 0 .374-.167.707-.5l2.793-2.793"/><path fill="#139D49" d="M20 155.246a8 8 0 0 1 8-8h16a8 8 0 0 1 8 8v116H20v-116Z"/><path fill="#D0FA93" d="M74 194.246a8 8 0 0 1 8-8h16a8 8 0 0 1 8 8v77H74v-77Z"/><path fill="#139D49" d="M128 104.246a8 8 0 0 1 8-8h16a8 8 0 0 1 8 8v167h-32v-167Z"/><path fill="#D0FA93" d="M182 132.246a8 8 0 0 1 8-8h16a8 8 0 0 1 8 8v139h-32v-139Z"/><path fill="#139D49" d="M236 137a8 8 0 0 1 8-8h16a8 8 0 0 1 8 8v134h-32V137Z"/><path fill="#D0FA93" d="M290 211a8 8 0 0 1 8-8h16a8 8 0 0 1 8 8v60h-32v-60Zm108 0a8 8 0 0 1 8-8h16a8 8 0 0 1 8 8v60h-32v-60Z"/><path fill="#139D49" d="M344 162a8 8 0 0 1 8-8h16a8 8 0 0 1 8 8v109h-32V162Zm108 .246a8 8 0 0 1 8-8h16a8 8 0 0 1 8 8v109h-32v-109Z"/><rect width="226" height="60" x="20" y="287.246" fill="#F8F9FA" rx="8"/><g filter="url(#b)"><rect width="32" height="32" x="30" y="301.246" fill="#fff" rx="8" shape-rendering="crispEdges"/><path stroke="#57615C" stroke-linecap="round" stroke-linejoin="round" stroke-width="1.5" d="M43.917 318.704c0 .808.625 1.458 1.392 1.458h1.566c.667 0 1.209-.567 1.209-1.275 0-.758-.334-1.033-.825-1.208l-2.509-.875c-.491-.175-.825-.442-.825-1.209 0-.7.542-1.275 1.209-1.275H46.7c.767 0 1.392.65 1.392 1.459M46 313.496v7.5"/><path stroke="#57615C" stroke-linecap="round" stroke-linejoin="round" stroke-width="1.5" d="M54.334 317.245c0 4.6-3.734 8.334-8.334 8.334a8.337 8.337 0 0 1-8.333-8.334c0-4.6 3.733-8.333 8.333-8.333"/><path stroke="#57615C" stroke-linecap="round" stroke-linejoin="round" stroke-width="1.5" d="M50.167 309.746v3.333H53.5m.834-4.167-4.167 4.167"/></g><path fill="#6B756F" d="M72.184 303.57v8.676h-1.176v-8.676h1.176Zm2.96 8.676h-1.129v-5.868h1.02l.12.9c.372-.672 1.116-1.068 1.944-1.068 1.548 0 2.256.948 2.256 2.448v3.588h-1.128v-3.336c0-1.188-.552-1.668-1.416-1.668-1.056 0-1.668.756-1.668 1.896v3.108Zm5.39-2.928c0-1.836 1.164-3.108 2.88-3.108 1.476 0 2.508.84 2.712 2.148h-1.128c-.192-.744-.792-1.14-1.548-1.14-1.068 0-1.8.816-1.8 2.088 0 1.26.684 2.076 1.752 2.076.804 0 1.404-.42 1.608-1.116h1.128c-.228 1.272-1.32 2.124-2.736 2.124-1.728 0-2.868-1.224-2.868-3.072Zm6.41-.012c0-1.812 1.296-3.084 3.06-3.084 1.752 0 3.048 1.272 3.048 3.084s-1.296 3.084-3.048 3.084c-1.764 0-3.06-1.272-3.06-3.084Zm1.14 0c0 1.224.78 2.076 1.92 2.076 1.128 0 1.92-.852 1.92-2.076 0-1.224-.792-2.076-1.92-2.076-1.14 0-1.92.852-1.92 2.076Zm7.344 2.94H94.3v-5.868h1.008l.108.768c.3-.552.924-.936 1.752-.936.912 0 1.56.456 1.86 1.188.276-.732.984-1.188 1.896-1.188 1.344 0 2.16.84 2.16 2.196v3.84h-1.104v-3.564c0-.924-.516-1.452-1.308-1.452-.852 0-1.416.6-1.416 1.536v3.48H98.14v-3.576c0-.924-.504-1.428-1.296-1.428-.852 0-1.416.588-1.416 1.524v3.48Zm11.752.144c-1.728 0-2.916-1.248-2.916-3.072 0-1.836 1.164-3.108 2.868-3.108 1.668 0 2.76 1.152 2.76 2.892v.42l-4.536.012c.084 1.236.732 1.92 1.848 1.92.876 0 1.452-.36 1.644-1.032h1.056c-.288 1.26-1.272 1.968-2.724 1.968Zm-.048-5.232c-.984 0-1.608.588-1.752 1.62h3.384c0-.972-.636-1.62-1.632-1.62Z"/><path fill="#414D48" d="M73.64 333.576v-1.162c-1.946-.14-3.192-1.274-3.234-2.982h1.792c.014.798.532 1.302 1.442 1.414v-2.982l-.448-.098c-1.764-.378-2.646-1.358-2.646-2.898 0-1.638 1.232-2.814 3.094-3.01v-1.19h1.078v1.19c1.764.182 2.856 1.288 2.912 2.968h-1.736c-.028-.756-.448-1.246-1.176-1.4v3.01l.476.112c1.792.392 2.604 1.26 2.604 2.744 0 1.708-1.204 2.884-3.08 3.094v1.19H73.64Zm-.056-7.392.056.014v-2.786c-.84.14-1.344.644-1.344 1.4 0 .742.392 1.176 1.288 1.372Zm1.232 1.932-.098-.028v2.73c.84-.168 1.344-.658 1.344-1.372 0-.714-.406-1.148-1.246-1.33Zm5.685-4.494h-2.24v-1.61h3.962v10.234h-1.722v-8.624Zm10.104 8.61-7.098.014v-1.344l3.346-2.828c1.386-1.176 1.848-1.848 1.848-2.828 0-1.162-.63-1.82-1.708-1.82-1.12 0-1.82.784-1.834 2.1h-1.778c.014-2.24 1.442-3.696 3.612-3.696 2.184 0 3.542 1.246 3.542 3.318 0 1.428-.784 2.506-2.338 3.836l-1.848 1.582h4.256v1.666Zm3.358-.602a2.22 2.22 0 0 1-1.974 2.226v-.686c.63-.112 1.106-.49 1.106-.98a.873.873 0 0 1-.406.084c-.546 0-.994-.406-.994-.966 0-.672.434-1.12 1.064-1.12.7 0 1.204.574 1.204 1.442Zm.506-4.48c0-3.178 1.708-5.334 4.326-5.334 2.618 0 4.34 2.156 4.34 5.334 0 3.164-1.624 5.278-4.34 5.278-2.716 0-4.326-2.114-4.326-5.278Zm1.764 0c0 2.366.952 3.696 2.562 3.696 1.624 0 2.576-1.33 2.576-3.696 0-2.422-.952-3.752-2.576-3.752-1.61 0-2.562 1.33-2.562 3.752Zm7.607 0c0-3.178 1.708-5.334 4.326-5.334 2.618 0 4.34 2.156 4.34 5.334 0 3.164-1.624 5.278-4.34 5.278-2.716 0-4.326-2.114-4.326-5.278Zm1.764 0c0 2.366.952 3.696 2.562 3.696 1.624 0 2.576-1.33 2.576-3.696 0-2.422-.952-3.752-2.576-3.752-1.61 0-2.562 1.33-2.562 3.752Zm7.607 0c0-3.178 1.708-5.334 4.326-5.334 2.618 0 4.34 2.156 4.34 5.334 0 3.164-1.624 5.278-4.34 5.278-2.716 0-4.326-2.114-4.326-5.278Zm1.764 0c0 2.366.952 3.696 2.562 3.696 1.624 0 2.576-1.33 2.576-3.696 0-2.422-.952-3.752-2.576-3.752-1.61 0-2.562 1.33-2.562 3.752Z"/><rect width="226" height="60" x="258" y="287.246" fill="#F8F9FA" rx="8"/><g filter="url(#c)"><rect width="32" height="32" x="268" y="301.246" fill="#fff" rx="8" shape-rendering="crispEdges"/><path stroke="#57615C" stroke-linecap="round" stroke-linejoin="round" stroke-width="1.5" d="M281.917 318.704c0 .808.625 1.458 1.392 1.458h1.566c.667 0 1.209-.567 1.209-1.275 0-.758-.334-1.033-.825-1.208l-2.509-.875c-.491-.175-.825-.442-.825-1.209 0-.7.542-1.275 1.209-1.275h1.566c.767 0 1.392.65 1.392 1.459M284 313.496v7.5"/><path stroke="#57615C" stroke-linecap="round" stroke-linejoin="round" stroke-width="1.5" d="M292.334 317.245c0 4.6-3.734 8.334-8.334 8.334s-8.333-3.734-8.333-8.334 3.733-8.333 8.333-8.333m8.333 3.333v-3.333H289m-.833 4.167 4.167-4.167"/></g><path fill="#6B756F" d="M314.3 312.246h-5.292v-8.676h5.292v1.08h-4.116v2.712h3.708v1.044h-3.708v2.748h4.116v1.092Zm2.112 0h-1.296l2.052-2.904-2.04-2.964h1.308l1.488 2.184 1.452-2.184h1.284l-2.04 2.964 2.004 2.904h-1.308l-1.464-2.148-1.44 2.148Zm5.189 2.628v-8.496h1.02l.084 1.056c.396-.804 1.188-1.224 2.124-1.224 1.68 0 2.724 1.26 2.724 3.06 0 1.788-.984 3.132-2.724 3.132-.936 0-1.716-.396-2.1-1.116v3.588h-1.128Zm1.14-5.556c0 1.2.696 2.064 1.848 2.064 1.152 0 1.836-.864 1.836-2.064 0-1.212-.684-2.076-1.836-2.076-1.152 0-1.848.852-1.848 2.076Zm8.587 3.072c-1.728 0-2.916-1.248-2.916-3.072 0-1.836 1.164-3.108 2.868-3.108 1.668 0 2.76 1.152 2.76 2.892v.42l-4.536.012c.084 1.236.732 1.92 1.848 1.92.876 0 1.452-.36 1.644-1.032h1.056c-.288 1.26-1.272 1.968-2.724 1.968Zm-.048-5.232c-.984 0-1.608.588-1.752 1.62h3.384c0-.972-.636-1.62-1.632-1.62Zm5.148 5.088H335.3v-5.868h1.02l.12.9c.372-.672 1.116-1.068 1.944-1.068 1.548 0 2.256.948 2.256 2.448v3.588h-1.128v-3.336c0-1.188-.552-1.668-1.416-1.668-1.056 0-1.668.756-1.668 1.896v3.108Zm5.224-1.704h1.08c0 .6.456.96 1.2.96.792 0 1.248-.324 1.248-.864 0-.396-.192-.636-.804-.792l-1.032-.24c-1.044-.252-1.536-.768-1.536-1.632 0-1.08.912-1.764 2.208-1.764 1.284 0 2.124.72 2.148 1.836h-1.08c-.024-.588-.42-.96-1.104-.96-.708 0-1.104.312-1.104.852 0 .396.288.66.864.804l1.032.252c.996.24 1.488.696 1.488 1.572 0 1.116-.96 1.824-2.352 1.824-1.38 0-2.256-.732-2.256-1.848Zm8.391 1.848c-1.728 0-2.916-1.248-2.916-3.072 0-1.836 1.164-3.108 2.868-3.108 1.668 0 2.76 1.152 2.76 2.892v.42l-4.536.012c.084 1.236.732 1.92 1.848 1.92.876 0 1.452-.36 1.644-1.032h1.056c-.288 1.26-1.272 1.968-2.724 1.968Zm-.048-5.232c-.984 0-1.608.588-1.752 1.62h3.384c0-.972-.636-1.62-1.632-1.62Zm3.54 3.384h1.08c0 .6.456.96 1.2.96.792 0 1.248-.324 1.248-.864 0-.396-.192-.636-.804-.792l-1.032-.24c-1.044-.252-1.536-.768-1.536-1.632 0-1.08.912-1.764 2.208-1.764 1.284 0 2.124.72 2.148 1.836h-1.08c-.024-.588-.42-.96-1.104-.96-.708 0-1.104.312-1.104.852 0 .396.288.66.864.804l1.032.252c.996.24 1.488.696 1.488 1.572 0 1.116-.96 1.824-2.352 1.824-1.38 0-2.256-.732-2.256-1.848Z"/><path fill="#414D48" d="M308.868 329.264v-1.512h4.508v1.512h-4.508Zm8.506 4.312v-1.162c-1.946-.14-3.192-1.274-3.234-2.982h1.792c.014.798.532 1.302 1.442 1.414v-2.982l-.448-.098c-1.764-.378-2.646-1.358-2.646-2.898 0-1.638 1.232-2.814 3.094-3.01v-1.19h1.078v1.19c1.764.182 2.856 1.288 2.912 2.968h-1.736c-.028-.756-.448-1.246-1.176-1.4v3.01l.476.112c1.792.392 2.604 1.26 2.604 2.744 0 1.708-1.204 2.884-3.08 3.094v1.19h-1.078Zm-.056-7.392.056.014v-2.786c-.84.14-1.344.644-1.344 1.4 0 .742.392 1.176 1.288 1.372Zm1.232 1.932-.098-.028v2.73c.84-.168 1.344-.658 1.344-1.372 0-.714-.406-1.148-1.246-1.33Zm3.558 1.232c0-1.218.686-2.198 1.75-2.604-.896-.406-1.386-1.176-1.386-2.17 0-1.624 1.442-2.744 3.556-2.744 2.1 0 3.514 1.106 3.514 2.772 0 .994-.504 1.764-1.414 2.142 1.078.378 1.778 1.372 1.778 2.604 0 1.848-1.526 3.066-3.906 3.066-2.366 0-3.892-1.204-3.892-3.066Zm1.988-4.62c0 .854.742 1.4 1.904 1.4 1.148 0 1.876-.532 1.876-1.386 0-.854-.728-1.386-1.876-1.386-1.162 0-1.904.532-1.904 1.372Zm-.238 4.494c0 .994.826 1.61 2.156 1.61 1.302 0 2.128-.616 2.128-1.61 0-.994-.826-1.61-2.142-1.61-1.316 0-2.142.616-2.142 1.61Zm9.212 2.408a2.22 2.22 0 0 1-1.974 2.226v-.686c.63-.112 1.106-.49 1.106-.98a.873.873 0 0 1-.406.084c-.546 0-.994-.406-.994-.966 0-.672.434-1.12 1.064-1.12.7 0 1.204.574 1.204 1.442Zm.507-4.48c0-3.178 1.708-5.334 4.326-5.334 2.618 0 4.34 2.156 4.34 5.334 0 3.164-1.624 5.278-4.34 5.278-2.716 0-4.326-2.114-4.326-5.278Zm1.764 0c0 2.366.952 3.696 2.562 3.696 1.624 0 2.576-1.33 2.576-3.696 0-2.422-.952-3.752-2.576-3.752-1.61 0-2.562 1.33-2.562 3.752Zm7.607 0c0-3.178 1.708-5.334 4.326-5.334 2.618 0 4.34 2.156 4.34 5.334 0 3.164-1.624 5.278-4.34 5.278-2.716 0-4.326-2.114-4.326-5.278Zm1.764 0c0 2.366.952 3.696 2.562 3.696 1.624 0 2.576-1.33 2.576-3.696 0-2.422-.952-3.752-2.576-3.752-1.61 0-2.562 1.33-2.562 3.752Zm7.607 0c0-3.178 1.708-5.334 4.326-5.334 2.618 0 4.34 2.156 4.34 5.334 0 3.164-1.624 5.278-4.34 5.278-2.716 0-4.326-2.114-4.326-5.278Zm1.764 0c0 2.366.952 3.696 2.562 3.696 1.624 0 2.576-1.33 2.576-3.696 0-2.422-.952-3.752-2.576-3.752-1.61 0-2.562 1.33-2.562 3.752Z"/></g><defs><filter id="b" width="128" height="128" x="-18" y="261.246" color-interpolation-filters="sRGB" filterUnits="userSpaceOnUse"><feFlood flood-opacity="0" result="BackgroundImageFix"/><feColorMatrix in="SourceAlpha" result="hardAlpha" values="0 0 0 0 0 0 0 0 0 0 0 0 0 0 0 0 0 0 127 0"/><feOffset dy="8"/><feGaussianBlur stdDeviation="24"/><feComposite in2="hardAlpha" operator="out"/><feColorMatrix values="0 0 0 0 0.0392157 0 0 0 0 0.239216 0 0 0 0 0.164706 0 0 0 0.08 0"/><feBlend in2="BackgroundImageFix" result="effect1_dropShadow_3040_2133"/><feBlend in="SourceGraphic" in2="effect1_dropShadow_3040_2133" result="shape"/></filter><filter id="c" width="128" height="128" x="220" y="261.246" color-interpolation-filters="sRGB" filterUnits="userSpaceOnUse"><feFlood flood-opacity="0" result="BackgroundImageFix"/><feColorMatrix in="SourceAlpha" result="hardAlpha" values="0 0 0 0 0 0 0 0 0 0 0 0 0 0 0 0 0 0 127 0"/><feOffset dy="8"/><feGaussianBlur stdDeviation="24"/><feComposite in2="hardAlpha" operator="out"/><feColorMatrix values="0 0 0 0 0.0392157 0 0 0 0 0.239216 0 0 0 0 0.164706 0 0 0 0.08 0"/><feBlend in2="BackgroundImageFix" result="effect1_dropShadow_3040_2133"/><feBlend in="SourceGraphic" in2="effect1_dropShadow_3040_2133" result="shape"/></filter><clipPath id="a"><path fill="#fff" d="M0 16.246c0-8.836 7.163-16 16-16h472c8.837 0 16 7.164 16 16v322H0v-322Z"/></clipPath></defs></svg>