<svg xmlns="http://www.w3.org/2000/svg" width="256" height="136" fill="none"><path fill="#fff" d="M.5.5h255v135H.5z"/><path stroke="#fff" d="M.5.5h255v135H.5z"/><path fill="#414D48" d="M20.168 25.404v-1.08h6.396v1.08H23.96V33h-1.176v-7.596h-2.616Zm6.053 4.656c0-1.812 1.296-3.084 3.06-3.084 1.752 0 3.048 1.272 3.048 3.084s-1.296 3.084-3.048 3.084c-1.764 0-3.06-1.272-3.06-3.084Zm1.14 0c0 1.224.78 2.076 1.92 2.076 1.128 0 1.92-.852 1.92-2.076 0-1.224-.792-2.076-1.92-2.076-1.14 0-1.92.852-1.92 2.076ZM35.175 33h-1.128v-4.92h-1.152v-.948h1.152v-1.836h1.128v1.836h1.152v.948h-1.152V33Zm3.81.144c-1.26 0-2.004-.708-2.004-1.776 0-1.08.804-1.752 2.184-1.86l1.848-.144v-.168c0-.984-.588-1.332-1.38-1.332-.948 0-1.488.42-1.488 1.128h-.984c0-1.224 1.008-2.028 2.52-2.028 1.452 0 2.436.768 2.436 2.352V33h-.96l-.12-.948c-.3.672-1.104 1.092-2.052 1.092Zm.324-.876c1.068 0 1.716-.696 1.716-1.8v-.312l-1.5.12c-.996.096-1.404.48-1.404 1.056 0 .624.456.936 1.188.936Zm5.522.732h-1.128v-8.832h1.128V33Zm7.294.144c-1.704 0-2.736-1.272-2.736-3.06 0-1.8 1.044-3.12 2.784-3.12.9 0 1.656.396 2.052 1.116v-3.912h1.116V33h-1.008l-.096-1.068c-.384.804-1.176 1.212-2.112 1.212Zm.228-1.02c1.152 0 1.86-.852 1.86-2.076 0-1.2-.708-2.064-1.86-2.064-1.152 0-1.824.864-1.824 2.064 0 1.212.672 2.076 1.824 2.076Zm7.147 1.02c-1.728 0-2.916-1.248-2.916-3.072 0-1.836 1.164-3.108 2.868-3.108 1.668 0 2.76 1.152 2.76 2.892v.42l-4.536.012c.084 1.236.732 1.92 1.848 1.92.876 0 1.452-.36 1.644-1.032h1.056c-.288 1.26-1.272 1.968-2.724 1.968Zm-.048-5.232c-.984 0-1.608.588-1.752 1.62h3.384c0-.972-.636-1.62-1.632-1.62Zm4.02 7.716v-8.496h1.02l.084 1.056c.396-.804 1.188-1.224 2.124-1.224 1.68 0 2.724 1.26 2.724 3.06 0 1.788-.984 3.132-2.724 3.132-.936 0-1.716-.396-2.1-1.116v3.588h-1.128Zm1.14-5.556c0 1.2.696 2.064 1.848 2.064 1.152 0 1.836-.864 1.836-2.064 0-1.212-.684-2.076-1.836-2.076-1.152 0-1.848.852-1.848 2.076Zm5.672-.012c0-1.812 1.296-3.084 3.06-3.084 1.752 0 3.048 1.272 3.048 3.084s-1.296 3.084-3.048 3.084c-1.764 0-3.06-1.272-3.06-3.084Zm1.14 0c0 1.224.78 2.076 1.92 2.076 1.128 0 1.92-.852 1.92-2.076 0-1.224-.792-2.076-1.92-2.076-1.14 0-1.92.852-1.92 2.076Zm5.736 1.236h1.08c0 .6.456.96 1.2.96.792 0 1.248-.324 1.248-.864 0-.396-.192-.636-.804-.792l-1.032-.24c-1.044-.252-1.536-.768-1.536-1.632 0-1.08.912-1.764 2.208-1.764 1.284 0 2.124.72 2.148 1.836h-1.08c-.024-.588-.42-.96-1.104-.96-.708 0-1.104.312-1.104.852 0 .396.288.66.864.804l1.032.252c.996.24 1.488.696 1.488 1.572 0 1.116-.96 1.824-2.352 1.824-1.38 0-2.256-.732-2.256-1.848Zm6.411-5.556a.748.748 0 0 1-.744-.744.74.74 0 0 1 .744-.744.74.74 0 0 1 .744.744.748.748 0 0 1-.744.744ZM83.02 33v-5.868h1.128V33H83.02Zm4.422 0h-1.128v-4.92H85.16v-.948h1.152v-1.836h1.128v1.836h1.152v.948H87.44V33Z"/><path fill="#0A3D2A" d="M25.2 65.9v-1.66c-2.78-.2-4.56-1.82-4.62-4.26h2.56c.02 1.14.76 1.86 2.06 2.02v-4.26l-.64-.14c-2.52-.54-3.78-1.94-3.78-4.14 0-2.34 1.76-4.02 4.42-4.3v-1.7h1.54v1.7c2.52.26 4.08 1.84 4.16 4.24h-2.48c-.04-1.08-.64-1.78-1.68-2v4.3l.68.16c2.56.56 3.72 1.8 3.72 3.92 0 2.44-1.72 4.12-4.4 4.42v1.7H25.2Zm-.08-10.56.08.02v-3.98c-1.2.2-1.92.92-1.92 2 0 1.06.56 1.68 1.84 1.96Zm1.76 2.76-.14-.04v3.9c1.2-.24 1.92-.94 1.92-1.96s-.58-1.64-1.78-1.9Zm15.516 5.88-10.14.02v-1.92l4.78-4.04c1.98-1.68 2.64-2.64 2.64-4.04 0-1.66-.9-2.6-2.44-2.6-1.6 0-2.6 1.12-2.62 3h-2.54c.02-3.2 2.06-5.28 5.16-5.28 3.12 0 5.06 1.78 5.06 4.74 0 2.04-1.12 3.58-3.34 5.48l-2.64 2.26h6.08v2.38Zm12.182-2.76h-1.78V64h-2.42v-2.78h-7.42v-2.24l6.62-9.6h3.22v9.6h1.78v2.24Zm-8.9-2.24h4.7v-6.84l-4.7 6.84Zm10.01-2.26c0-4.54 2.44-7.62 6.18-7.62 3.74 0 6.2 3.08 6.2 7.62 0 4.52-2.32 7.54-6.2 7.54-3.88 0-6.18-3.02-6.18-7.54Zm2.52 0c0 3.38 1.36 5.28 3.66 5.28 2.32 0 3.68-1.9 3.68-5.28 0-3.46-1.36-5.36-3.68-5.36-2.3 0-3.66 1.9-3.66 5.36Zm12.399 7.52c-.88 0-1.62-.72-1.62-1.58 0-.88.74-1.6 1.62-1.6.88 0 1.62.72 1.62 1.6 0 .86-.74 1.58-1.62 1.58Zm3.143-4.38c0-1.74.98-3.14 2.5-3.72-1.28-.58-1.98-1.68-1.98-3.1 0-2.32 2.06-3.92 5.08-3.92 3 0 5.02 1.58 5.02 3.96 0 1.42-.72 2.52-2.02 3.06 1.54.54 2.54 1.96 2.54 3.72 0 2.64-2.18 4.38-5.58 4.38-3.38 0-5.56-1.72-5.56-4.38Zm2.84-6.6c0 1.22 1.06 2 2.72 2 1.64 0 2.68-.76 2.68-1.98s-1.04-1.98-2.68-1.98c-1.66 0-2.72.76-2.72 1.96Zm-.34 6.42c0 1.42 1.18 2.3 3.08 2.3 1.86 0 3.04-.88 3.04-2.3s-1.18-2.3-3.06-2.3c-1.88 0-3.06.88-3.06 2.3Zm9.833-2.96c0-4.54 2.44-7.62 6.18-7.62 3.74 0 6.2 3.08 6.2 7.62 0 4.52-2.32 7.54-6.2 7.54-3.88 0-6.18-3.02-6.18-7.54Zm2.52 0c0 3.38 1.36 5.28 3.66 5.28 2.32 0 3.68-1.9 3.68-5.28 0-3.46-1.36-5.36-3.68-5.36-2.3 0-3.66 1.9-3.66 5.36Zm14.401-7.34v7.68l5.92-7.68h3.02l-4.84 6.24 4.9 8.38h-2.96l-3.62-6.22-2.42 3.1V64h-2.56V49.38h2.56Z"/><rect width="36" height="36" x="200" y="26" fill="#D0FA93" rx="18"/><path stroke="#2D3934" stroke-linecap="round" stroke-linejoin="round" stroke-miterlimit="10" stroke-width="1.5" d="M224.083 40.6v4.292c0 2.567-1.467 3.667-3.667 3.667h-7.325c-.375 0-.733-.034-1.066-.109a3.225 3.225 0 0 1-.592-.158c-1.25-.467-2.008-1.55-2.008-3.4V40.6c0-2.566 1.466-3.666 3.666-3.666h7.325c1.867 0 3.209.791 3.567 2.6.058.333.1.675.1 1.066Z"/><path stroke="#2D3934" stroke-linecap="round" stroke-linejoin="round" stroke-miterlimit="10" stroke-width="1.5" d="M226.584 43.1v4.292c0 2.567-1.466 3.667-3.666 3.667h-7.325c-.617 0-1.175-.084-1.659-.267-.991-.367-1.666-1.125-1.908-2.342.333.075.692.109 1.067.109h7.325c2.2 0 3.666-1.1 3.666-3.667V40.6a5.25 5.25 0 0 0-.1-1.066c1.584.333 2.6 1.45 2.6 3.566Z"/><path stroke="#2D3934" stroke-linecap="round" stroke-linejoin="round" stroke-miterlimit="10" stroke-width="1.5" d="M216.748 44.95a2.2 2.2 0 1 0 0-4.4 2.2 2.2 0 0 0 0 4.4Zm-4.765-4.033v3.667m9.535-3.667v3.667"/><rect width="216" height="8" x="20" y="84" fill="#E5E7E6" rx="4"/><rect width="120.738" height="8" x="20" y="84" fill="#139D49" rx="4"/><path fill="#139D49" d="M23.477 110.466v-5.625h.955v5.625h-.955Zm-2.335-2.335v-.955h5.625v.955h-5.625ZM28.403 112v-.767l2.881-3.153c.338-.37.617-.691.835-.964a3.51 3.51 0 0 0 .486-.775c.108-.244.162-.5.162-.767 0-.307-.074-.573-.222-.797a1.44 1.44 0 0 0-.596-.52 1.937 1.937 0 0 0-.852-.183c-.336 0-.628.069-.878.209a1.435 1.435 0 0 0-.576.575 1.8 1.8 0 0 0-.2.869h-1.006c0-.511.118-.96.354-1.346.236-.387.557-.688.963-.904.41-.216.868-.324 1.377-.324.511 0 .964.108 1.36.324.394.216.704.507.928.874.225.366.337.774.337 1.223 0 .321-.059.635-.175.942-.114.304-.313.643-.597 1.018-.28.372-.672.827-1.172 1.364l-1.96 2.096v.068h4.057V112h-5.506Zm8.016.068a.737.737 0 0 1-.541-.226.738.738 0 0 1-.226-.541c0-.21.075-.39.226-.541a.737.737 0 0 1 .541-.226c.21 0 .39.075.541.226.15.151.226.331.226.541a.799.799 0 0 1-.384.665.733.733 0 0 1-.383.102Zm5.148.051a3.266 3.266 0 0 1-1.074-.204 2.572 2.572 0 0 1-.98-.661c-.296-.312-.533-.734-.712-1.265-.179-.534-.268-1.205-.268-2.012 0-.772.072-1.457.217-2.054.145-.599.355-1.103.63-1.512a2.85 2.85 0 0 1 .998-.938 2.73 2.73 0 0 1 1.325-.32c.489 0 .923.098 1.304.294a2.5 2.5 0 0 1 .938.81c.241.347.397.746.468 1.198h-1.04a1.922 1.922 0 0 0-.562-.976c-.278-.259-.648-.388-1.108-.388-.676 0-1.209.294-1.598.882-.386.588-.58 1.413-.584 2.476h.069a2.548 2.548 0 0 1 2.147-1.159c.5 0 .958.125 1.372.375.415.247.747.589.997 1.027.25.434.375.933.375 1.496a3.07 3.07 0 0 1-.362 1.482 2.76 2.76 0 0 1-1.018 1.066c-.435.261-.946.389-1.534.383Zm0-.937c.358 0 .679-.09.963-.269a1.92 1.92 0 0 0 .677-.72 2.03 2.03 0 0 0 .252-1.005c0-.361-.081-.689-.243-.985a1.862 1.862 0 0 0-.66-.712 1.748 1.748 0 0 0-.955-.264c-.27 0-.521.054-.754.162a1.94 1.94 0 0 0-.614.435c-.173.185-.31.396-.41.635a2.02 2.02 0 0 0 .767 2.446c.288.184.613.277.977.277Zm9.04-.818v-.461c0-.318.065-.609.195-.873.134-.267.327-.48.58-.639.255-.162.565-.243.929-.243.369 0 .679.081.929.243.25.159.439.372.566.639.128.264.192.555.192.873v.461c0 .318-.065.61-.196.877a1.545 1.545 0 0 1-.57.64c-.25.159-.558.238-.921.238-.37 0-.68-.079-.934-.238a1.575 1.575 0 0 1-.575-.64 1.966 1.966 0 0 1-.196-.877Zm.868-.461v.461c0 .264.063.501.188.711.125.208.34.311.648.311.298 0 .508-.103.63-.311.125-.21.188-.447.188-.711v-.461c0-.264-.06-.5-.18-.707-.118-.21-.331-.315-.638-.315-.299 0-.513.105-.644.315a1.318 1.318 0 0 0-.192.707Zm-5.215-4.534v-.46c0-.318.065-.609.196-.873.133-.268.326-.481.58-.64.255-.162.564-.243.928-.243.37 0 .68.081.93.243.25.159.438.372.566.64.128.264.192.555.192.873v.46c0 .318-.066.611-.196.878a1.549 1.549 0 0 1-.571.639c-.25.159-.557.239-.92.239-.37 0-.681-.08-.934-.239a1.58 1.58 0 0 1-.575-.639 1.97 1.97 0 0 1-.196-.878Zm.869-.46v.46c0 .265.062.502.187.712.125.207.341.311.648.311.298 0 .509-.104.63-.311.126-.21.188-.447.188-.712v-.46c0-.264-.06-.5-.179-.707-.119-.211-.332-.316-.639-.316-.298 0-.513.105-.643.316a1.318 1.318 0 0 0-.192.707ZM46.584 112l6-8.727h.971l-6 8.727h-.971Zm11.942-6a.2.2 0 0 0-.133.349l3.974 3.533a.2.2 0 0 0 .266 0l3.974-3.533a.2.2 0 0 0-.133-.349h-7.948Z"/><path fill="#414D48" d="M72.057 112v-8.727h1.057v7.789h4.056V112h-5.113Zm9.358.136c-.63 0-1.175-.139-1.632-.417a2.806 2.806 0 0 1-1.053-1.176c-.244-.506-.366-1.094-.366-1.765 0-.67.122-1.261.366-1.772a2.888 2.888 0 0 1 1.031-1.202c.444-.29.96-.435 1.552-.435a3.1 3.1 0 0 1 1.01.171c.332.113.634.298.907.554.273.253.49.588.652 1.005.162.418.243.932.243 1.543v.426h-5.046v-.869h4.023a2.15 2.15 0 0 0-.221-.989 1.67 1.67 0 0 0-.623-.686 1.747 1.747 0 0 0-.945-.251c-.401 0-.748.099-1.04.298a1.97 1.97 0 0 0-.67.767 2.25 2.25 0 0 0-.234 1.014v.58c0 .494.085.913.256 1.257.173.341.413.601.72.78.307.176.663.264 1.07.264.264 0 .503-.037.716-.111a1.53 1.53 0 0 0 .558-.341c.156-.153.277-.344.362-.571l.972.273a2.156 2.156 0 0 1-.516.869c-.241.247-.54.441-.895.58a3.326 3.326 0 0 1-1.197.204Zm8.876-5.216-.903.256a1.686 1.686 0 0 0-.252-.439 1.222 1.222 0 0 0-.443-.358c-.187-.093-.427-.14-.72-.14-.4 0-.734.092-1.001.277-.265.181-.397.413-.397.694 0 .25.091.448.273.593.182.144.466.265.852.362l.972.238c.585.142 1.021.36 1.308.652.287.29.43.664.43 1.121 0 .375-.107.71-.323 1.006a2.155 2.155 0 0 1-.895.699c-.384.17-.83.255-1.338.255-.668 0-1.22-.145-1.658-.434-.438-.29-.715-.713-.83-1.27l.954-.239c.09.352.262.617.515.793.256.176.59.264 1.002.264.468 0 .84-.099 1.116-.298.278-.202.418-.443.418-.725a.762.762 0 0 0-.239-.571c-.159-.156-.403-.272-.733-.349l-1.09-.256c-.6-.142-1.04-.362-1.322-.66-.278-.302-.417-.678-.417-1.13 0-.369.103-.696.31-.98.21-.284.496-.507.857-.669a3.007 3.007 0 0 1 1.236-.243c.648 0 1.156.142 1.526.426.372.285.636.66.792 1.125Zm6.27 0-.904.256a1.686 1.686 0 0 0-.251-.439 1.222 1.222 0 0 0-.443-.358c-.188-.093-.428-.14-.72-.14-.401 0-.735.092-1.002.277-.264.181-.396.413-.396.694 0 .25.09.448.273.593.181.144.466.265.852.362l.971.238c.586.142 1.022.36 1.309.652.287.29.43.664.43 1.121 0 .375-.108.71-.324 1.006a2.156 2.156 0 0 1-.895.699c-.383.17-.83.255-1.338.255-.667 0-1.22-.145-1.657-.434-.438-.29-.715-.713-.831-1.27l.954-.239c.091.352.263.617.516.793.255.176.59.264 1.001.264.469 0 .841-.099 1.117-.298.278-.202.417-.443.417-.725a.763.763 0 0 0-.238-.571c-.16-.156-.404-.272-.733-.349l-1.091-.256c-.6-.142-1.04-.362-1.321-.66-.279-.302-.418-.678-.418-1.13 0-.369.104-.696.311-.98a2.12 2.12 0 0 1 .857-.669 3.007 3.007 0 0 1 1.236-.243c.647 0 1.156.142 1.525.426.372.285.636.66.793 1.125Zm4.667-2.71v-.937h6.545v.937h-2.744V112h-1.057v-7.79h-2.744Zm9.046 3.852V112h-1.006v-8.727h1.006v3.204h.085c.153-.338.384-.606.69-.805.31-.202.722-.303 1.236-.303.446 0 .837.09 1.172.269.335.176.595.447.78.814.187.363.281.826.281 1.389V112h-1.006v-4.091c0-.52-.135-.922-.404-1.206-.267-.287-.638-.43-1.113-.43-.329 0-.625.069-.886.209a1.524 1.524 0 0 0-.614.609c-.147.267-.221.591-.221.971Zm8.01 4.091c-.415 0-.791-.078-1.129-.234a1.942 1.942 0 0 1-.806-.686c-.198-.301-.298-.665-.298-1.091 0-.375.074-.679.222-.912.147-.236.345-.42.592-.554a3.12 3.12 0 0 1 .818-.298 10.1 10.1 0 0 1 .908-.162c.398-.051.72-.09.967-.115.25-.029.432-.075.546-.141.116-.065.174-.179.174-.341v-.034c0-.42-.115-.747-.345-.98-.227-.233-.572-.349-1.035-.349-.48 0-.857.105-1.13.315-.272.21-.464.435-.575.673l-.954-.341c.17-.397.397-.707.681-.929.287-.224.6-.38.938-.468a3.89 3.89 0 0 1 1.006-.137 4 4 0 0 1 .724.077c.276.048.541.149.797.303.258.153.473.385.643.694.171.31.256.725.256 1.245V112h-1.006v-.886h-.051a1.77 1.77 0 0 1-.341.456c-.159.162-.37.299-.635.413-.264.114-.586.17-.967.17Zm.154-.903c.397 0 .732-.078 1.005-.234a1.597 1.597 0 0 0 .835-1.385v-.921c-.042.051-.136.098-.281.141a4.65 4.65 0 0 1-.494.106 21.302 21.302 0 0 1-.963.128c-.262.034-.506.09-.733.166a1.265 1.265 0 0 0-.546.337c-.136.148-.204.349-.204.605 0 .35.129.614.388.793.261.176.592.264.993.264Zm5.687-3.188V112h-1.005v-6.545h.971v1.022h.085a1.88 1.88 0 0 1 .699-.801c.313-.204.716-.307 1.211-.307.443 0 .831.091 1.163.273.332.179.591.452.776.818.184.364.276.824.276 1.381V112h-1.005v-4.091c0-.514-.134-.915-.401-1.202-.267-.289-.633-.434-1.099-.434-.321 0-.608.069-.861.209-.25.139-.447.342-.592.609-.145.267-.218.591-.218.971Zm10.395-4.789V112h-1.006v-8.727h1.006Zm3.768 8.88c-.415 0-.791-.078-1.129-.234a1.942 1.942 0 0 1-.806-.686c-.199-.301-.298-.665-.298-1.091 0-.375.074-.679.222-.912.147-.236.345-.42.592-.554a3.12 3.12 0 0 1 .818-.298 10.1 10.1 0 0 1 .908-.162c.398-.051.72-.09.967-.115.25-.029.432-.075.546-.141.116-.065.174-.179.174-.341v-.034c0-.42-.115-.747-.345-.98-.227-.233-.572-.349-1.035-.349-.48 0-.857.105-1.13.315-.272.21-.464.435-.575.673l-.954-.341c.17-.397.397-.707.681-.929.287-.224.6-.38.938-.468a3.89 3.89 0 0 1 1.006-.137 4 4 0 0 1 .724.077c.276.048.541.149.797.303.258.153.473.385.643.694.171.31.256.725.256 1.245V112h-1.006v-.886h-.051a1.77 1.77 0 0 1-.341.456c-.159.162-.37.299-.635.413-.264.114-.586.17-.967.17Zm.153-.903c.398 0 .733-.078 1.006-.234a1.597 1.597 0 0 0 .835-1.385v-.921c-.042.051-.136.098-.281.141a4.65 4.65 0 0 1-.494.106 21.302 21.302 0 0 1-.963.128c-.262.034-.506.09-.733.166a1.259 1.259 0 0 0-.546.337c-.136.148-.204.349-.204.605 0 .35.129.614.388.793.261.176.592.264.992.264Zm9.319-4.33-.903.256a1.689 1.689 0 0 0-.252-.439 1.226 1.226 0 0 0-.443-.358c-.188-.093-.428-.14-.72-.14-.401 0-.735.092-1.002.277-.264.181-.396.413-.396.694 0 .25.091.448.273.593.182.144.466.265.852.362l.972.238c.585.142 1.021.36 1.308.652.287.29.43.664.43 1.121 0 .375-.108.71-.324 1.006a2.156 2.156 0 0 1-.894.699c-.384.17-.83.255-1.339.255-.667 0-1.22-.145-1.657-.434-.438-.29-.715-.713-.831-1.27l.954-.239c.091.352.263.617.516.793.256.176.589.264 1.001.264.469 0 .841-.099 1.117-.298.278-.202.417-.443.417-.725a.762.762 0 0 0-.238-.571c-.159-.156-.404-.272-.733-.349l-1.091-.256c-.599-.142-1.04-.362-1.321-.66-.278-.302-.418-.678-.418-1.13 0-.369.104-.696.311-.98.211-.284.496-.507.857-.669a3.01 3.01 0 0 1 1.236-.243c.647 0 1.156.142 1.525.426.372.285.637.66.793 1.125Zm4.48-1.465v.852h-3.392v-.852h3.392Zm-2.404-1.569h1.006v6.239c0 .284.041.497.124.639a.64.64 0 0 0 .323.281c.134.046.275.069.422.069.111 0 .202-.006.273-.017l.17-.035.205.904a2.178 2.178 0 0 1-.75.119c-.284 0-.562-.061-.835-.183a1.659 1.659 0 0 1-.674-.558c-.176-.25-.264-.566-.264-.946v-6.512ZM158.61 112l-1.994-6.545h1.057l1.415 5.011h.068l1.398-5.011h1.073l1.381 4.994h.068l1.415-4.994h1.057L163.554 112h-.989l-1.432-5.028h-.102L159.599 112h-.989Zm10.789.136c-.631 0-1.175-.139-1.632-.417a2.81 2.81 0 0 1-1.053-1.176c-.244-.506-.366-1.094-.366-1.765 0-.67.122-1.261.366-1.772a2.89 2.89 0 0 1 1.032-1.202c.443-.29.96-.435 1.551-.435.341 0 .677.057 1.01.171.332.113.635.298.907.554.273.253.491.588.652 1.005.162.418.243.932.243 1.543v.426h-5.045v-.869h4.023c0-.369-.074-.699-.222-.989a1.67 1.67 0 0 0-.622-.686 1.746 1.746 0 0 0-.946-.251c-.401 0-.747.099-1.04.298a1.96 1.96 0 0 0-.669.767 2.254 2.254 0 0 0-.234 1.014v.58c0 .494.085.913.255 1.257.174.341.414.601.721.78.306.176.663.264 1.069.264.264 0 .503-.037.716-.111.216-.077.402-.19.558-.341a1.55 1.55 0 0 0 .363-.571l.971.273a2.149 2.149 0 0 1-.516.869 2.507 2.507 0 0 1-.894.58 3.334 3.334 0 0 1-1.198.204Zm6.985 0c-.631 0-1.175-.139-1.633-.417a2.808 2.808 0 0 1-1.052-1.176c-.244-.506-.367-1.094-.367-1.765 0-.67.123-1.261.367-1.772a2.888 2.888 0 0 1 1.031-1.202c.443-.29.96-.435 1.551-.435.341 0 .678.057 1.01.171.333.113.635.298.908.554.273.253.49.588.652 1.005.162.418.243.932.243 1.543v.426h-5.046v-.869h4.023c0-.369-.074-.699-.222-.989a1.663 1.663 0 0 0-.622-.686 1.746 1.746 0 0 0-.946-.251c-.4 0-.747.099-1.04.298a1.976 1.976 0 0 0-.669.767 2.254 2.254 0 0 0-.234 1.014v.58c0 .494.085.913.256 1.257.173.341.413.601.72.78.307.176.663.264 1.07.264.264 0 .502-.037.715-.111a1.54 1.54 0 0 0 .559-.341c.156-.153.277-.344.362-.571l.971.273a2.158 2.158 0 0 1-.515.869 2.52 2.52 0 0 1-.895.58 3.325 3.325 0 0 1-1.197.204Zm5.177-2.522-.017-1.245h.205l2.863-2.914h1.245l-3.052 3.085h-.085l-1.159 1.074Zm-.937 2.386v-8.727h1.005V112h-1.005Zm4.159 0-2.557-3.239.716-.699 3.119 3.938h-1.278Z"/></svg>