<svg xmlns="http://www.w3.org/2000/svg" width="352" height="232" fill="none"><path fill="#fff" d="M0 0h352v232H0z"/><path fill="#414D48" d="M22.304 38h-2.128L24.4 26.304h2.096L30.72 38h-2.16l-.944-2.704h-4.368L22.304 38Zm2.88-8.208-1.328 3.776h3.168l-1.344-3.776c-.096-.304-.208-.656-.24-.896a8.174 8.174 0 0 1-.256.896ZM33.851 38h-1.952v-7.904h1.808l.16 1.024c.496-.8 1.456-1.264 2.528-1.264 1.984 0 3.008 1.232 3.008 3.28V38H37.45v-4.4c0-1.328-.656-1.968-1.664-1.968-1.2 0-1.936.832-1.936 2.112V38Zm9.822.208c-1.68 0-2.705-.976-2.705-2.464 0-1.456 1.056-2.368 2.928-2.512l2.368-.176v-.176c0-1.072-.64-1.504-1.632-1.504-1.151 0-1.791.48-1.791 1.312h-1.665c0-1.712 1.408-2.832 3.552-2.832 2.128 0 3.44 1.152 3.44 3.344V38h-1.712l-.144-1.168c-.335.816-1.407 1.376-2.64 1.376Zm.64-1.472c1.2 0 1.968-.72 1.968-1.936v-.416l-1.648.128c-1.217.112-1.68.512-1.68 1.152 0 .72.48 1.072 1.36 1.072ZM52.053 38h-1.936V26.096h1.936V38Zm1.36 3.664v-1.632h1.168c.768 0 1.248-.176 1.584-1.104l.224-.592-3.184-8.24h2.064l2.032 5.76 2.144-5.76h2.016L57.59 39.76c-.592 1.472-1.424 2.08-2.72 2.08a5.762 5.762 0 0 1-1.456-.176ZM61.79 35.6h1.856c.016.688.528 1.12 1.424 1.12.912 0 1.408-.368 1.408-.944 0-.4-.208-.688-.912-.848l-1.424-.336c-1.424-.32-2.112-.992-2.112-2.256 0-1.552 1.312-2.48 3.136-2.48 1.776 0 2.976 1.024 2.992 2.56h-1.856c-.016-.672-.464-1.104-1.216-1.104-.768 0-1.216.352-1.216.944 0 .448.352.736 1.024.896l1.424.336c1.328.304 2 .912 2 2.128 0 1.6-1.36 2.592-3.312 2.592-1.968 0-3.216-1.056-3.216-2.608Zm8.99-7.088c-.672 0-1.2-.528-1.2-1.184 0-.656.528-1.168 1.2-1.168.64 0 1.168.512 1.168 1.168 0 .656-.528 1.184-1.168 1.184ZM69.805 38v-7.904h1.952V38h-1.952Zm3.36-2.4h1.857c.016.688.528 1.12 1.424 1.12.912 0 1.408-.368 1.408-.944 0-.4-.208-.688-.912-.848l-1.424-.336c-1.424-.32-2.112-.992-2.112-2.256 0-1.552 1.312-2.48 3.136-2.48 1.776 0 2.976 1.024 2.992 2.56h-1.856c-.016-.672-.464-1.104-1.216-1.104-.768 0-1.216.352-1.216.944 0 .448.352.736 1.024.896l1.424.336c1.328.304 2 .912 2 2.128 0 1.6-1.36 2.592-3.312 2.592-1.968 0-3.216-1.056-3.216-2.608Z"/><rect width="8" height="6" x="189" y="29" fill="#139D49" rx="1"/><path fill="#57615C" d="M203.548 26.878V37h-1.372V26.878h1.372ZM207 37h-1.316v-6.846h1.19l.14 1.05c.434-.784 1.302-1.246 2.268-1.246 1.806 0 2.632 1.106 2.632 2.856V37h-1.316v-3.892c0-1.386-.644-1.946-1.652-1.946-1.232 0-1.946.882-1.946 2.212V37Zm6.289-3.416c0-2.142 1.358-3.626 3.36-3.626 1.722 0 2.926.98 3.164 2.506h-1.316c-.224-.868-.924-1.33-1.806-1.33-1.246 0-2.1.952-2.1 2.436 0 1.47.798 2.422 2.044 2.422.938 0 1.638-.49 1.876-1.302h1.316c-.266 1.484-1.54 2.478-3.192 2.478-2.016 0-3.346-1.428-3.346-3.584Zm7.479-.014c0-2.114 1.512-3.598 3.57-3.598 2.044 0 3.556 1.484 3.556 3.598s-1.512 3.598-3.556 3.598c-2.058 0-3.57-1.484-3.57-3.598Zm1.33 0c0 1.428.91 2.422 2.24 2.422 1.316 0 2.24-.994 2.24-2.422 0-1.428-.924-2.422-2.24-2.422-1.33 0-2.24.994-2.24 2.422Zm8.568 3.43h-1.316v-6.846h1.176l.126.896c.35-.644 1.078-1.092 2.044-1.092 1.064 0 1.82.532 2.17 1.386.322-.854 1.148-1.386 2.212-1.386 1.568 0 2.52.98 2.52 2.562V37h-1.288v-4.158c0-1.078-.602-1.694-1.526-1.694-.994 0-1.652.7-1.652 1.792V37h-1.302v-4.172c0-1.078-.588-1.666-1.512-1.666-.994 0-1.652.686-1.652 1.778V37Zm13.711.168c-2.016 0-3.402-1.456-3.402-3.584 0-2.142 1.358-3.626 3.346-3.626 1.946 0 3.22 1.344 3.22 3.374v.49l-5.292.014c.098 1.442.854 2.24 2.156 2.24 1.022 0 1.694-.42 1.918-1.204h1.232c-.336 1.47-1.484 2.296-3.178 2.296Zm-.056-6.104c-1.148 0-1.876.686-2.044 1.89h3.948c0-1.134-.742-1.89-1.904-1.89Z"/><rect width="8" height="6" x="261" y="29" fill="#D0FA93" rx="1"/><path fill="#57615C" d="M283.304 31.932c0 3.08-2.016 5.236-4.886 5.236-2.856 0-4.844-2.156-4.844-5.236 0-3.066 2.002-5.236 4.858-5.236 2.87 0 4.872 2.156 4.872 5.236Zm-1.442 0c0-2.352-1.372-3.906-3.43-3.906s-3.416 1.554-3.416 3.906c0 2.352 1.358 3.92 3.416 3.92s3.43-1.582 3.43-3.92Zm7.705-1.778h1.302V37h-1.176l-.14-1.036c-.392.714-1.302 1.204-2.31 1.204-1.596 0-2.492-1.078-2.492-2.758v-4.256h1.316v3.822c0 1.47.63 2.03 1.638 2.03 1.204 0 1.862-.77 1.862-2.24v-3.612ZM294.71 37h-1.316v-5.74h-1.344v-1.106h1.344v-2.142h1.316v2.142h1.344v1.106h-1.344V37Zm2.009-3.416c0-2.142 1.358-3.626 3.36-3.626 1.722 0 2.926.98 3.164 2.506h-1.316c-.224-.868-.924-1.33-1.806-1.33-1.246 0-2.1.952-2.1 2.436 0 1.47.798 2.422 2.044 2.422.938 0 1.638-.49 1.876-1.302h1.316c-.266 1.484-1.54 2.478-3.192 2.478-2.016 0-3.346-1.428-3.346-3.584Zm7.478-.014c0-2.114 1.512-3.598 3.57-3.598 2.044 0 3.556 1.484 3.556 3.598s-1.512 3.598-3.556 3.598c-2.058 0-3.57-1.484-3.57-3.598Zm1.33 0c0 1.428.91 2.422 2.24 2.422 1.316 0 2.24-.994 2.24-2.422 0-1.428-.924-2.422-2.24-2.422-1.33 0-2.24.994-2.24 2.422Zm8.569 3.43h-1.316v-6.846h1.176l.126.896c.35-.644 1.078-1.092 2.044-1.092 1.064 0 1.82.532 2.17 1.386.322-.854 1.148-1.386 2.212-1.386 1.568 0 2.52.98 2.52 2.562V37h-1.288v-4.158c0-1.078-.602-1.694-1.526-1.694-.994 0-1.652.7-1.652 1.792V37h-1.302v-4.172c0-1.078-.588-1.666-1.512-1.666-.994 0-1.652.686-1.652 1.778V37Zm13.71.168c-2.016 0-3.402-1.456-3.402-3.584 0-2.142 1.358-3.626 3.346-3.626 1.946 0 3.22 1.344 3.22 3.374v.49l-5.292.014c.098 1.442.854 2.24 2.156 2.24 1.022 0 1.694-.42 1.918-1.204h1.232c-.336 1.47-1.484 2.296-3.178 2.296Zm-.056-6.104c-1.148 0-1.876.686-2.044 1.89h3.948c0-1.134-.742-1.89-1.904-1.89Z"/><path fill="#9BA19E" d="M34.084 72.988 28.228 73v-.9l2.796-2.412c1.404-1.212 1.8-1.8 1.8-2.724 0-1.092-.624-1.74-1.668-1.74-1.068 0-1.764.78-1.788 2.016h-1.176c.036-1.86 1.212-3.072 2.976-3.072 1.74 0 2.856 1.056 2.856 2.724 0 1.236-.612 2.112-2.148 3.444l-1.8 1.56h4.008v1.092Zm3.916.156c-1.776 0-2.928-1.128-2.928-2.856h1.164c0 1.116.684 1.8 1.788 1.8 1.176 0 1.932-.78 1.932-1.956 0-1.116-.708-1.944-1.92-1.944-.732 0-1.404.348-1.8.84l-.996-.252 1.056-4.452h4.344v1.08h-3.492l-.576 2.304c.456-.348 1.032-.528 1.68-.528 1.764 0 2.904 1.236 2.904 2.904 0 1.8-1.284 3.06-3.156 3.06Zm4.174-4.476c0-2.688 1.392-4.512 3.576-4.512 2.172 0 3.564 1.824 3.564 4.512 0 2.7-1.332 4.488-3.564 4.488-2.244 0-3.576-1.788-3.576-4.488Zm1.164 0c0 2.136.888 3.432 2.412 3.432s2.4-1.296 2.4-3.432c0-2.16-.876-3.456-2.4-3.456s-2.412 1.296-2.412 3.456ZM51.874 73h-1.128v-8.832h1.128v5.724l2.604-2.76h1.416l-2.244 2.34L55.882 73h-1.296l-1.716-2.712-.996 1.044V73Z"/><path stroke="#E5E7E6" stroke-width=".5" d="M68 67.75h264"/><path fill="#9BA19E" d="M31.139 99.38h-1.825v-1.056h2.953V107h-1.129v-7.62Zm2.715 3.288c0-2.688 1.392-4.512 3.576-4.512 2.172 0 3.564 1.824 3.564 4.512 0 2.7-1.332 4.488-3.564 4.488-2.244 0-3.576-1.788-3.576-4.488Zm1.164 0c0 2.136.888 3.432 2.412 3.432s2.4-1.296 2.4-3.432c0-2.16-.876-3.456-2.4-3.456s-2.412 1.296-2.412 3.456Zm7.156 0c0-2.688 1.392-4.512 3.576-4.512 2.172 0 3.564 1.824 3.564 4.512 0 2.7-1.332 4.488-3.564 4.488-2.244 0-3.576-1.788-3.576-4.488Zm1.164 0c0 2.136.888 3.432 2.412 3.432s2.4-1.296 2.4-3.432c0-2.16-.876-3.456-2.4-3.456s-2.412 1.296-2.412 3.456ZM51.874 107h-1.128v-8.832h1.128v5.724l2.604-2.76h1.416l-2.244 2.34L55.882 107h-1.296l-1.716-2.712-.996 1.044V107Z"/><path stroke="#E5E7E6" stroke-width=".5" d="M68 101.75h264"/><path fill="#9BA19E" d="M38 141.144c-1.776 0-2.928-1.128-2.928-2.856h1.164c0 1.116.684 1.8 1.788 1.8 1.176 0 1.932-.78 1.932-1.956 0-1.116-.708-1.944-1.92-1.944-.732 0-1.404.348-1.8.84l-.996-.252 1.056-4.452h4.344v1.08h-3.492l-.576 2.304c.456-.348 1.032-.528 1.68-.528 1.764 0 2.904 1.236 2.904 2.904 0 1.8-1.284 3.06-3.156 3.06Zm4.174-4.476c0-2.688 1.392-4.512 3.576-4.512 2.172 0 3.564 1.824 3.564 4.512 0 2.7-1.332 4.488-3.564 4.488-2.244 0-3.576-1.788-3.576-4.488Zm1.164 0c0 2.136.888 3.432 2.412 3.432s2.4-1.296 2.4-3.432c0-2.16-.876-3.456-2.4-3.456s-2.412 1.296-2.412 3.456ZM51.874 141h-1.128v-8.832h1.128v5.724l2.604-2.76h1.416l-2.244 2.34L55.882 141h-1.296l-1.716-2.712-.996 1.044V141Z"/><path stroke="#E5E7E6" stroke-width=".5" d="M68 135.75h264"/><path fill="#9BA19E" d="M39.459 167.38h-1.824v-1.056h2.952V175h-1.128v-7.62Zm2.715 3.288c0-2.688 1.392-4.512 3.576-4.512 2.172 0 3.564 1.824 3.564 4.512 0 2.7-1.332 4.488-3.564 4.488-2.244 0-3.576-1.788-3.576-4.488Zm1.164 0c0 2.136.888 3.432 2.412 3.432s2.4-1.296 2.4-3.432c0-2.16-.876-3.456-2.4-3.456s-2.412 1.296-2.412 3.456ZM51.874 175h-1.128v-8.832h1.128v5.724l2.604-2.76h1.416l-2.244 2.34L55.882 175h-1.296l-1.716-2.712-.996 1.044V175Z"/><path stroke="#E5E7E6" stroke-width=".5" d="M68 169.75h264"/><path fill="#9BA19E" d="M48.268 204.668c0-2.688 1.392-4.512 3.576-4.512 2.172 0 3.564 1.824 3.564 4.512 0 2.7-1.332 4.488-3.564 4.488-2.244 0-3.576-1.788-3.576-4.488Zm1.164 0c0 2.136.888 3.432 2.412 3.432s2.4-1.296 2.4-3.432c0-2.16-.876-3.456-2.4-3.456s-2.412 1.296-2.412 3.456Z"/><path stroke="#E5E7E6" stroke-width=".5" d="M68 203.75h264"/><path fill="#139D49" d="M97 100.664A3.664 3.664 0 0 1 100.664 97h6.672a3.664 3.664 0 0 1 3.664 3.664V204H97V100.664Z"/><path fill="#D0FA93" d="M118.328 71.664A3.665 3.665 0 0 1 121.992 68h6.672a3.664 3.664 0 0 1 3.664 3.664V204h-14V71.664Z"/><path fill="#139D49" d="M163.558 133.664a3.664 3.664 0 0 1 3.664-3.664h6.671a3.665 3.665 0 0 1 3.665 3.664V204h-14v-70.336Z"/><path fill="#D0FA93" d="M184.886 123.664A3.664 3.664 0 0 1 188.55 120h6.671a3.665 3.665 0 0 1 3.665 3.664V204h-14v-80.336Z"/><path fill="#139D49" d="M230.114 91.664A3.665 3.665 0 0 1 233.779 88h6.671a3.664 3.664 0 0 1 3.664 3.664V204h-14V91.664Z"/><path fill="#D0FA93" d="M251.443 137.664a3.664 3.664 0 0 1 3.664-3.664h6.672a3.665 3.665 0 0 1 3.664 3.664V204h-14v-66.336Z"/><path fill="#139D49" d="M296.671 109.664a3.665 3.665 0 0 1 3.665-3.664h6.671a3.664 3.664 0 0 1 3.664 3.664V204h-14v-94.336Z"/><path fill="#D0FA93" d="M318 103.664a3.665 3.665 0 0 1 3.664-3.664h6.672a3.665 3.665 0 0 1 3.664 3.664V204h-14V103.664Z"/></svg>