<svg xmlns="http://www.w3.org/2000/svg" width="340" height="262" fill="none"><mask id="a" width="340" height="262" x="0" y="0" maskUnits="userSpaceOnUse" style="mask-type:alpha"><rect width="340" height="261" y=".976" fill="#404040" rx="15"/></mask><g mask="url(#a)"><rect width="340" height="277" y="1.025" fill="#fff" rx="15"/><path stroke="#CCCFCE" stroke-dasharray="3 3" d="M220 183.976a49.997 49.997 0 0 1-50 50 50.012 50.012 0 0 1-35.355-14.645A50.007 50.007 0 0 1 120 183.976a49.998 49.998 0 0 1 85.355-35.356A50.007 50.007 0 0 1 220 183.976Z"/><path stroke="#CCCFCE" stroke-dasharray="2.7 2.7" stroke-width=".902" d="M268 183.976a98.002 98.002 0 0 1-135.503 90.54 98 98 0 0 1-31.793-159.837 97.996 97.996 0 0 1 138.592 0A97.987 97.987 0 0 1 268 183.976Z"/><path stroke="#000" stroke-dasharray="2.7 2.7" stroke-opacity=".2" stroke-width=".902" d="M268 183.976a98.002 98.002 0 0 1-135.503 90.54 98 98 0 0 1-31.793-159.837 97.996 97.996 0 0 1 138.592 0A97.987 97.987 0 0 1 268 183.976Z"/><path stroke="#CCCFCE" stroke-dasharray="3 3" d="M316 183.976a145.992 145.992 0 0 1-146 146 146.007 146.007 0 0 1-103.238-42.763A145.993 145.993 0 0 1 24 183.976a145.999 145.999 0 1 1 292 0Z"/><path stroke="#000" stroke-dasharray="3 3" stroke-opacity=".2" d="M316 183.976a145.992 145.992 0 0 1-146 146 146.007 146.007 0 0 1-103.238-42.763A145.993 145.993 0 0 1 24 183.976a145.999 145.999 0 1 1 292 0Z"/><rect width="40" height="40" x="195" y="148.025" fill="#95BF46" rx="20"/><path fill="#fff" stroke="#fff" stroke-width=".646" d="m216.196 169.171 3.943 6.375-3.943-6.375Zm0 0c.112-.082.212-.181.294-.294l6.374 3.944c.02.013.024.041.007.058l-2.674 2.673.229.229-.229-.228a.038.038 0 0 1-.058-.007l-3.943-6.375Zm1.129-9.722-1.719 7.295a1.414 1.414 0 0 0-.416 0l-1.718-7.295a.037.037 0 0 1 .036-.046h3.781c.024 0 .042.022.036.046Zm-.835 7.834a1.344 1.344 0 0 0-.294-.294l3.943-6.375a.037.037 0 0 1 .058-.006l2.674 2.673a.038.038 0 0 1-.007.058l.17.275-.17-.275-6.374 3.944Zm-5.833 8.263a.036.036 0 0 1-.057.006l-2.674-2.673a.037.037 0 0 1 .007-.058l6.374-3.944c.082.113.182.212.294.294l-3.944 6.375Zm3.65-8.263-6.374-3.944a.037.037 0 0 1-.007-.058l2.674-2.673a.036.036 0 0 1 .057.006l3.944 6.375a1.344 1.344 0 0 0-.294.294Zm-7.54-1.13 7.296 1.719a1.298 1.298 0 0 0 0 .416l-7.296 1.719a.038.038 0 0 1-.046-.036v-3.781c0-.024.023-.042.046-.037Zm6.705 10.559 1.718-7.296a1.435 1.435 0 0 0 .416 0l1.719 7.296a.036.036 0 0 1-.036.045h-3.781a.036.036 0 0 1-.036-.045Zm10.558-6.705-7.296-1.719a1.298 1.298 0 0 0 0-.416l7.296-1.719a.038.038 0 0 1 .046.037v3.781a.038.038 0 0 1-.046.036Z"/><rect width="40" height="40" x="225" y="225.025" fill="#F8BD00" rx="20"/><g clip-path="url(#b)"><path fill="#fff" stroke="#fff" stroke-width="1.2" d="M244.357 242.216a.913.913 0 0 0 1.29 0m-1.29 0h1.29m-1.29 0-2.607-2.607a.911.911 0 0 1 0-1.289l2.607-2.607a.913.913 0 0 1 1.29 0m-1.29 6.503 1.29-6.503m0 6.503 2.607-2.607m-2.607 2.607 2.607-2.607m0 0a.911.911 0 0 0 0-1.289m0 1.289.424-1.714-.424.425m0 0-2.607-2.607m2.607 2.607-2.607-2.607m2.158 9.951a.911.911 0 0 1 0-1.289l2.607-2.607a.913.913 0 0 1 1.29 0l2.606 2.607a.91.91 0 0 1 0 1.289l-2.606 2.607a.913.913 0 0 1-1.29 0l-2.607-2.607Zm-12.11 0a.911.911 0 0 1 0-1.289l-.421-.421.421.421 2.607-2.607a.913.913 0 0 1 1.29 0l2.607 2.607a.911.911 0 0 1 0 1.289l-2.607 2.607a.913.913 0 0 1-1.29 0l-2.607-2.607Zm8.662 8.662-2.607-2.607-.424.424.424-.424a.913.913 0 0 1 0-1.29l2.607-2.606a.91.91 0 0 1 1.29 0l2.607 2.606a.913.913 0 0 1 0 1.29l-2.607 2.607a.913.913 0 0 1-1.29 0Z"/></g><rect width="40" height="40" x="12" y="115.025" fill="#FF6D41" rx="20"/><path fill="#fff" d="M32.798 135.08a1.232 1.232 0 1 1-2.464 0 1.232 1.232 0 0 1 2.464 0Zm3.363 1.942a1.232 1.232 0 1 1-2.464 0 1.232 1.232 0 0 1 2.464 0Zm3.363 1.942a1.232 1.232 0 1 1-2.464 0 1.232 1.232 0 0 1 2.464 0Zm-10.042-5.826a1.232 1.232 0 1 1-2.464 0 1.232 1.232 0 0 1 2.464 0Zm-3.316-1.942a1.231 1.231 0 1 1-2.462 0 1.231 1.231 0 0 1 2.462 0Zm3.316 5.826a1.232 1.232 0 1 1-2.464 0 1.232 1.232 0 0 1 2.464 0Zm-3.316 1.942a1.232 1.232 0 1 1-2.464 0 1.232 1.232 0 0 1 2.464 0Zm9.995-5.826a1.232 1.232 0 1 1-2.464 0 1.232 1.232 0 0 1 2.464 0Zm3.363-1.942a1.231 1.231 0 1 1-2.462 0 1.231 1.231 0 0 1 2.462 0Zm-6.726 7.768a1.232 1.232 0 1 1-2.464 0 1.232 1.232 0 0 1 2.464 0Zm0 3.885a1.231 1.231 0 1 1-2.463 0 1.231 1.231 0 0 1 2.463 0Zm0-11.653a1.231 1.231 0 1 1-2.463 0 1.231 1.231 0 0 1 2.463 0Zm0-3.884a1.231 1.231 0 1 1-2.463 0 1.231 1.231 0 0 1 2.463 0Z"/><rect width="40" height="40" x="274" y="91.025" fill="#F8BD00" rx="20"/><g clip-path="url(#c)"><path fill="#fff" stroke="#fff" stroke-width=".563" d="m294.295 108.9 2.173-2.172a.979.979 0 0 0 0-1.384m-2.173 3.556 2.371-3.755-.198.199m-2.173 3.556a.977.977 0 0 1-1.384 0m1.384 0h-1.384m3.557-3.556-2.173-2.173m2.173 2.173-2.173-2.173m-1.384 5.729-2.172-2.172m2.172 2.172-2.172-2.172m0 0a.977.977 0 0 1 0-1.384m0 1.384v-1.384m0 0 2.172-2.173m-2.172 2.173 2.172-2.173m0 0a.979.979 0 0 1 1.384 0m-1.384 0h1.384m1.489 8.603a.979.979 0 0 1 0-1.384l2.173-2.173a.979.979 0 0 1 1.384 0l2.172 2.173a.978.978 0 0 1 0 1.384l-2.172 2.172a.979.979 0 0 1-1.384 0l-2.173-2.172Zm-4.362 0-2.173 2.172a.979.979 0 0 1-1.384 0l-2.172-2.172a.979.979 0 0 1 0-1.384l-.197-.198.197.198 2.172-2.173-.199-.199.199.199a.979.979 0 0 1 1.384 0l.199-.199-.199.199 2.173 2.173a.979.979 0 0 1 0 1.384Zm1.489 7.218-2.172-2.173-.199.199.199-.199a.977.977 0 0 1 0-1.384l-.199-.199.199.199 2.172-2.172a.979.979 0 0 1 1.384 0l2.173 2.172a.979.979 0 0 1 0 1.384l-2.173 2.173a.979.979 0 0 1-1.384 0Z"/></g><rect width="40" height="40" x="150" y="66.025" fill="#139D49" rx="20"/><g clip-path="url(#d)"><path fill="#fff" fill-rule="evenodd" d="M170.314 76.025a.4.4 0 0 1 .4.4v3.868c0 .44.607.557.771.15l1.449-3.586a.4.4 0 0 1 .521-.221l.583.235a.401.401 0 0 1 .221.521l-1.545 3.823c-.163.404.346.74.654.433l2.915-2.916a.4.4 0 0 1 .566 0l.444.445a.398.398 0 0 1 0 .565l-2.618 2.618c-.312.313.038.827.443.65l3.393-1.483a.4.4 0 0 1 .527.207l.251.576a.4.4 0 0 1-.206.526l-3.91 1.709c-.397.173-.273.766.161.766h4.266a.4.4 0 0 1 .4.4v.629a.4.4 0 0 1-.4.4h-4.266c-.434 0-.558.593-.161.766l3.91 1.708a.4.4 0 0 1 .206.527l-.251.576a.4.4 0 0 1-.527.206l-3.393-1.482c-.405-.177-.755.337-.443.65l2.618 2.617a.399.399 0 0 1 0 .566l-.444.445a.4.4 0 0 1-.566 0l-2.915-2.916c-.308-.308-.817.029-.654.433l1.545 3.823a.401.401 0 0 1-.221.52l-.583.236a.4.4 0 0 1-.521-.221l-1.449-3.586c-.164-.408-.771-.29-.771.15v3.867a.4.4 0 0 1-.4.4h-.628a.4.4 0 0 1-.4-.4v-3.867c0-.44-.606-.558-.771-.15l-1.449 3.586a.4.4 0 0 1-.521.221l-.582-.236a.4.4 0 0 1-.221-.52l1.544-3.823c.163-.404-.346-.74-.654-.433l-2.915 2.916a.4.4 0 0 1-.566 0l-.444-.445a.399.399 0 0 1 0-.566l2.618-2.618c.312-.312-.038-.826-.443-.649l-3.393 1.482a.4.4 0 0 1-.527-.206l-.251-.576a.4.4 0 0 1 .206-.527l3.91-1.708c.397-.173.273-.766-.161-.766H160.4a.4.4 0 0 1-.4-.4v-.629a.4.4 0 0 1 .4-.4h4.266c.434 0 .558-.593.161-.766l-3.91-1.709a.4.4 0 0 1-.206-.526l.251-.576a.4.4 0 0 1 .527-.207l3.393 1.483c.405.177.755-.337.443-.65l-2.618-2.618a.398.398 0 0 1 0-.565l.444-.445a.4.4 0 0 1 .566 0l2.915 2.916c.308.308.817-.03.654-.433l-1.544-3.823a.4.4 0 0 1 .221-.52l.582-.236a.4.4 0 0 1 .521.22l1.449 3.587c.165.407.771.29.771-.15v-3.868a.4.4 0 0 1 .4-.4h.628ZM170 90.311a4.286 4.286 0 1 0 0-8.572 4.286 4.286 0 0 0 0 8.572Z" clip-rule="evenodd"/></g><rect width="40" height="40" x="65" y="203.025" fill="#635BFF" rx="20"/><path fill="#fff" stroke="#fff" stroke-width=".458" d="M94.17 227.815v3.988l-8.542-4.271v-3.987l8.541 4.27Zm-9 3.988-8.542-4.271v-3.987l8.541 4.27v3.988Zm9-13.271-8.542 4.271v-3.988l8.541-4.27v3.987Zm-9 0-8.542 4.271v-3.988l8.541-4.27v3.987Z"/><rect width="340" height="133" y="173.025" fill="url(#e)" rx="15"/></g><defs><clipPath id="b"><path fill="#fff" d="M234.203 234.221h21.6v21.6h-21.6z"/></clipPath><clipPath id="c"><path fill="#fff" d="M284.602 102.08h18v18h-18z"/></clipPath><clipPath id="d"><path fill="#fff" d="M160 76.025h20v20h-20z"/></clipPath><linearGradient id="e" x1="170" x2="170" y1="173.025" y2="306.025" gradientUnits="userSpaceOnUse"><stop stop-color="#fff" stop-opacity="0"/><stop offset=".173" stop-color="#fff" stop-opacity=".8"/><stop offset=".659" stop-color="#fff"/></linearGradient></defs></svg>